PathFileType	4	(X/Y/Z)	TVC_20_BWA6_walk_RCNL2025.trc
DataRate	CameraRate	NumFrames	NumMarkers	Units	OrigDataRate	OrigDataStartFrame	OrigNumFrames
100	100	7	27	mm	100	179	238
Frame#	Time	R_Shoulder			L_Shoulder			C7			J_Notch			R_Elbow			L_Elbow			R_Wrist			L_Wrist			R_Asis			L_Asis			R_Psis			L_Psis			Sacral			Thoracic			Sternum			R_Thigh_Lateral			R_Knee_Lateral			R_Shank_Lateral			R_Ankle_Lateral			R_Heel			R_Toe			L_Thigh_Lateral			L_Knee_Lateral			L_Shank_Lateral			L_Ankle_Lateral			L_Heel			L_Toe		
		X1	Y1	Z1	X2	Y2	Z2	X3	Y3	Z3	X4	Y4	Z4	X5	Y5	Z5	X6	Y6	Z6	X7	Y7	Z7	X8	Y8	Z8	X9	Y9	Z9	X10	Y10	Z10	X11	Y11	Z11	X12	Y12	Z12	X13	Y13	Z13	X14	Y14	Z14	X15	Y15	Z15	X16	Y16	Z16	X17	Y17	Z17	X18	Y18	Z18	X19	Y19	Z19	X20	Y20	Z20	X21	Y21	Z21	X22	Y22	Z22	X23	Y23	Z23	X24	Y24	Z24	X25	Y25	Z25	X26	Y26	Z26	X27	Y27	Z27
179	1.78000000	1161.293335	1393.331299	153.761276	1115.913696	1424.129272	-208.538147	1117.369629	1463.151855	-11.849090	1229.985474	1327.922241	-31.658466	1086.457520	1093.712036	258.668091	1044.770630	1118.106445	-311.273468	1259.717285	899.502899	236.270111	1192.768799	901.322235	-306.682785	1165.905518	1004.891968	106.996445	1162.470093	1004.774475	-171.489578	1014.544800	1012.976074	15.044990	999.837036	999.585632	-75.121239	1007.190918	1006.280853	-30.038125	996.698303	1240.822632	-27.944284	1236.783813	1185.369995	-46.625057	1148.730957	668.860474	166.881592	1169.274170	473.419434	82.329956	1111.898193	297.643433	130.719574	1080.703003	73.023567	37.484547	1034.228516	54.233322	-14.823792	1225.934448	30.548584	24.553915	1179.277832	641.631592	-246.311157	1244.011475	483.730133	-181.963730	1123.005371	349.179352	-233.266495	948.590210	176.749573	-158.063477	904.224792	199.583649	-118.971687	1031.702026	67.944931	-124.668541
180	1.79000000	1174.931641	1394.929810	154.063065	1129.322510	1424.605957	-208.253693	1131.022217	1464.172607	-11.722396	1243.210327	1328.682495	-31.217484	1101.394775	1095.488281	260.164734	1055.487549	1119.291870	-310.598297	1276.216675	903.006317	235.738838	1199.349121	899.662354	-307.467667	1177.950684	1005.501404	108.336441	1175.358521	1006.215332	-170.067627	1026.942871	1014.094360	16.030384	1012.495361	1000.882935	-74.272842	1019.719116	1007.488647	-29.121229	1009.750854	1242.071533	-26.979828	1249.635986	1186.104004	-45.500587	1154.758423	668.854858	166.784393	1170.234985	473.443207	81.358131	1111.339722	298.400513	129.873779	1080.838379	73.643097	37.125011	1034.469238	54.663437	-15.372802	1225.919556	30.646618	24.535177	1200.243774	644.863953	-244.899002	1266.421265	488.253540	-179.460815	1151.877563	347.206116	-230.748291	986.161682	166.115875	-155.650558	940.443970	186.101501	-116.355484	1076.476440	63.597004	-123.264626
181	1.80000000	1188.482788	1396.181641	154.351486	1142.718018	1424.761475	-207.975418	1144.606689	1464.851929	-11.603005	1256.394043	1329.104126	-30.764872	1116.234985	1096.945557	261.664124	1066.272095	1120.202637	-310.028351	1292.639038	906.253784	235.195450	1206.033142	897.881927	-308.263504	1190.039429	1005.766785	109.573792	1188.231323	1007.296204	-168.752838	1039.338623	1014.846191	16.955435	1025.127441	1001.787415	-73.453293	1032.233032	1008.316803	-28.248929	1022.758423	1242.986206	-26.094839	1262.469116	1186.490723	-44.378342	1161.035156	668.800171	166.659363	1171.140991	473.423492	80.422874	1110.717651	299.162170	129.080353	1080.938110	74.235748	36.721455	1034.693481	55.095535	-15.957193	1225.885010	30.745270	24.535732	1221.363525	647.990112	-243.545380	1288.102905	492.422607	-176.925903	1180.614990	344.917450	-228.225296	1024.577637	155.291290	-153.209366	977.677979	172.269287	-113.637611	1121.667114	59.455975	-121.956406
182	1.81000000	1201.957153	1397.060303	154.625946	1156.097168	1424.586060	-207.702271	1158.130859	1465.174683	-11.485492	1269.544312	1329.169067	-30.306164	1130.997192	1098.052246	263.157471	1077.113159	1120.820190	-309.544342	1308.985657	909.195953	234.647049	1212.841858	895.972717	-309.053314	1202.165771	1005.682068	110.710762	1201.106323	1007.982910	-167.552124	1051.736572	1015.216858	17.803848	1037.744751	1002.277405	-72.677849	1044.740662	1008.747131	-27.437000	1035.730103	1243.550415	-25.301821	1275.286377	1186.510620	-43.275448	1167.593140	668.645081	166.507812	1172.059814	473.348907	79.564888	1110.085449	299.914062	128.365417	1080.991699	74.778809	36.270741	1034.880127	55.531090	-16.580751	1225.821289	30.831455	24.563826	1242.516846	650.922363	-242.222397	1309.039429	496.159393	-174.387527	1209.142944	342.424713	-225.752823	1063.843750	144.466354	-150.768997	1015.940735	158.338409	-110.874664	1167.170410	55.609707	-120.666771
183	1.82000000	1215.364014	1397.547974	154.884277	1169.457642	1424.075928	-207.435349	1171.602417	1465.131836	-11.367137	1282.668335	1328.866211	-29.847984	1145.700317	1098.784790	264.634216	1087.996094	1121.133301	-309.127014	1325.256653	911.789398	234.099876	1219.793213	893.931519	-309.821548	1214.318970	1005.249634	111.754028	1214.005737	1008.250671	-166.466675	1064.141113	1015.198364	18.557657	1050.361206	1002.340454	-71.965187	1057.251160	1008.769409	-26.703765	1048.675049	1243.753540	-24.613670	1288.091187	1186.152710	-42.207054	1174.428223	668.332031	166.337250	1173.079224	473.210663	78.812027	1109.506714	300.639679	127.736931	1080.993530	75.256081	35.765991	1035.013184	55.974369	-17.253967	1225.722412	30.892178	24.622082	1263.543579	653.571289	-240.911835	1329.220093	499.394104	-171.875458	1237.386230	339.815430	-223.377426	1103.947021	133.828827	-148.353973	1055.218994	144.556366	-108.125336	1212.903198	52.155918	-119.301010
184	1.83000000	1228.711060	1397.635376	155.122833	1182.798462	1423.233398	-207.177856	1185.028931	1464.721436	-11.247976	1295.773315	1328.192505	-29.397581	1160.361328	1099.127808	266.082245	1098.904419	1121.138184	-308.758057	1341.450745	913.997498	233.559608	1226.902832	891.759827	-310.554459	1226.485474	1004.480103	112.714264	1226.956299	1008.085083	-165.491745	1076.557373	1014.789795	19.197998	1062.993286	1001.973206	-71.336555	1069.775330	1008.381500	-26.069279	1061.602905	1243.591187	-24.043152	1300.887817	1185.414062	-41.185337	1181.515625	667.815308	166.168549	1174.303711	473.002441	78.179138	1109.062012	301.321411	127.187027	1080.942871	75.659058	35.197548	1035.091187	56.432632	-17.989340	1225.585815	30.915339	24.708147	1284.241577	655.845398	-239.607422	1348.642700	502.066315	-169.417450	1265.277832	337.151489	-221.132858	1144.848022	123.565880	-145.981033	1095.466064	131.162704	-105.442459	1258.792603	49.204445	-117.758804
185	1.84000000	1242.004517	1397.322510	155.336746	1196.120728	1422.066772	-206.934998	1198.418091	1463.948608	-11.130742	1308.866333	1327.152344	-28.962444	1174.995483	1099.074585	267.487915	1109.821411	1120.837891	-308.420929	1357.565796	915.791351	233.031425	1234.184021	889.463379	-311.240387	1238.651001	1003.391724	113.605392	1239.987671	1007.481506	-164.616745	1088.991943	1013.997681	19.706043	1075.660400	1001.180847	-70.814629	1082.326172	1007.589264	-25.554293	1074.524170	1243.064331	-23.602280	1313.682129	1184.300293	-40.218903	1188.821533	667.072021	166.035309	1175.847778	472.721069	77.669693	1108.849487	301.942902	126.696754	1080.845337	75.988937	34.556068	1035.132935	56.916901	-18.795744	1225.413086	30.890799	24.815756	1304.359985	657.642517	-238.312332	1367.314819	504.127258	-167.036102	1292.768433	334.472015	-219.037170	1186.473145	113.863968	-143.657364	1136.595459	118.385780	-102.866814	1304.762451	46.872387	-115.946915
